# xmcd
#
# Track frame offsets: 
#        150
#        19077
#        38712
#        62905
#        83527
#        111057
#        131495
#        154553
#        183090
#        210082
#        235490
#
# Disc length: 3222 seconds
#
# Revision: 4
# Processed by: cddbd v1.5.2PL0 Copyright (c) Steve Scherf et al.
# Submitted via: ExactAudioCopy v0.95b4
#
DISCID=7d0c940b
DTITLE=Nuno Mindelis - Twelve Hours
DYEAR=2003
DGENRE=Blues
TTITLE0=You Better Believe It
TTITLE1=Stormy Minded Man
TTITLE2=Shake It
TTITLE3=I Got You Baby
TTITLE4=Dizzy Slow Blues
TTITLE5=Rats and Leeches
TTITLE6=Crawling Back
TTITLE7=Dana's Song
TTITLE8=I Can't Quit Singing The Blues
TTITLE9=Twelve Hours
TTITLE10=Chica and Sarah Loops
EXTD=YEAR: 2003
EXTT0=
EXTT1=
EXTT2=
EXTT3=
EXTT4=
EXTT5=
EXTT6=
EXTT7=
EXTT8=
EXTT9=
EXTT10=
PLAYORDER=
